HIERARCHY
ROOT hip
{
	OFFSET 0.000000 0.000000 0.000000 
	CHANNELS 6 Xposition Yposition Zposition Xrotation Zrotation Yrotation
	JOINT abdomen
	{
		OFFSET 0.000000 3.402643 0.000000 
		CHANNELS 3 Xrotation Zrotation Yrotation
		JOINT chest
		{
			OFFSET 0.000000 8.438565 -0.680529 
			CHANNELS 3 Xrotation Zrotation Yrotation
			JOINT neck
			{
				OFFSET 0.000000 10.207942 -0.272212 
				CHANNELS 3 Xrotation Zrotation Yrotation
				JOINT head
				{
					OFFSET 0.000000 3.130431 0.000000 
					CHANNELS 3 Xrotation Zrotation Yrotation
					End Site
					{
						OFFSET 0.000000 3.130435 0.000000 
					}
				}
			}
			JOINT lCollar
			{
				OFFSET 3.470700 6.669187 -0.816635 
				CHANNELS 3 Yrotation Zrotation Xrotation
				JOINT lShldr
				{
					OFFSET 3.198488 0.000000 0.000000 
					CHANNELS 3 Zrotation Yrotation Xrotation
					JOINT lForeArm
					{
						OFFSET 10.139888 0.000000 0.000000 
						CHANNELS 3 Yrotation Zrotation Xrotation
						JOINT lHand
						{
							OFFSET 8.370511 0.000000 0.000000 
							CHANNELS 3 Zrotation Yrotation Xrotation
							End Site
							{
								OFFSET 4.083176 0.000000 0.000000 
							}
						}
					}
				}
			}
			JOINT rCollar
			{
				OFFSET -3.470700 6.669187 -0.816635 
				CHANNELS 3 Yrotation Zrotation Xrotation
				JOINT rShldr
				{
					OFFSET -3.198488 0.000000 0.000000 
					CHANNELS 3 Zrotation Yrotation Xrotation
					JOINT rForeArm
					{
						OFFSET -10.139888 0.000000 0.000000 
						CHANNELS 3 Yrotation Zrotation Xrotation
						JOINT rHand
						{
							OFFSET -8.370511 0.000000 0.000000 
							CHANNELS 3 Zrotation Yrotation Xrotation
							End Site
							{
								OFFSET -4.083176 0.000000 0.000000 
							}
						}
					}
				}
			}
		}
	}
	JOINT lThigh
	{
		OFFSET 5.308129 -1.633274 1.361059 
		CHANNELS 3 Xrotation Zrotation Yrotation
		JOINT lShin
		{
			OFFSET -2.041588 -20.007561 0.000000 
			CHANNELS 3 Xrotation Zrotation Yrotation
			JOINT lFoot
			{
				OFFSET 0.000000 -19.190928 -1.224953 
				CHANNELS 3 Xrotation Yrotation Zrotation
				End Site
				{
					OFFSET 0.000000 -2.449906 4.627600 
				}
			}
		}
	}
	JOINT rThigh
	{
		OFFSET -5.308129 -1.633274 1.361059 
		CHANNELS 3 Xrotation Zrotation Yrotation
		JOINT rShin
		{
			OFFSET 2.041588 -20.007561 0.000000 
			CHANNELS 3 Xrotation Zrotation Yrotation
			JOINT rFoot
			{
				OFFSET 0.000000 -19.190928 -1.224953 
				CHANNELS 3 Xrotation Yrotation Zrotation
				End Site
				{
					OFFSET 0.000000 -2.449906 4.627600 
				}
			}
		}
	}
}
MOTION
Frames: 6
Frame Time: 0.011111
7.027452 52.787792 29.726254 -2.187847 -1.453542 1.091427 21.919184 -7.903338 6.665432 -20.231962 1.313966 3.054461 -9.070840 5.012992 16.359192 17.688000 -13.812311 32.365810 9.969777 -14.785672 3.853935 -72.607719 -70.146187 34.156136 -78.941788 6.955503 21.827091 8.524705 12.647240 -9.778700 -4.049711 8.641859 2.072876 10.030370 32.270340 -30.387444 86.543571 -1.839130 31.438528 -8.534408 -12.637552 83.089699 -13.856468 10.829317 2.710966 29.372065 -5.376969 -4.780015 -12.840419 -6.895748 -4.798302 5.233788 -5.713206 -5.081178 48.616100 3.911289 7.027538 -5.999073 -9.730821 2.273546 
7.196616 52.830708 30.148533 -2.401681 -0.177276 1.366023 22.098730 -9.128415 5.775970 -20.053835 1.684535 2.947922 -9.414764 5.017475 16.301064 18.514069 -13.801466 32.191689 9.969777 -14.785672 3.853935 -72.763443 -70.024338 34.665249 -78.607719 7.092655 21.630516 8.524705 12.647240 -10.403699 -4.049711 8.641859 2.072876 10.377813 32.664749 -29.208912 86.519409 -1.788991 31.362934 -8.534408 -12.637552 82.523293 -12.424438 9.095767 3.117081 28.762554 -5.400905 -4.712152 -13.120947 -6.809556 -4.787501 4.098629 -7.553515 -6.407511 50.797115 3.691777 7.259733 -4.958845 -10.177802 2.386730 
7.296859 52.878952 30.497196 -2.460495 -0.638632 1.288266 22.112478 -8.501447 5.881431 -20.063007 1.772674 2.917598 -9.696944 4.820042 16.227104 19.350544 -13.777006 31.947544 9.969777 -14.785672 3.853935 -72.877388 -69.669853 35.014256 -78.414757 7.167305 21.509291 8.524705 12.647240 -11.136121 -4.049711 8.641859 2.072876 10.491272 33.183571 -28.060703 86.480949 -1.707632 31.230589 -8.534408 -12.637552 82.122902 -11.882638 9.490351 3.469869 28.302553 -5.425053 -4.628219 -12.830370 -6.784046 -4.750943 2.897789 -7.162813 -6.403536 52.799007 3.504274 7.446644 -5.057946 -11.483944 2.322845 
7.396792 52.976059 30.864340 -2.489952 -0.778805 1.196944 22.123007 -8.257997 5.827025 -20.130608 1.883187 2.875386 -9.951596 4.864008 16.209856 20.109222 -13.802179 31.845898 9.969777 -14.785672 3.853935 -72.765923 -69.136604 35.188133 -78.337097 7.197152 21.470579 8.524705 12.647240 -11.927136 -4.049711 8.641859 2.072876 10.724574 33.811047 -26.955759 86.429321 -1.594343 31.041574 -8.534408 -12.637552 81.722519 -11.127547 9.516512 3.449054 27.970213 -5.449441 -4.594388 -13.062743 -6.575180 -4.716146 1.715891 -7.130679 -6.604716 54.631824 3.318735 7.634611 -5.824682 -12.259169 2.140545 
7.532434 53.055321 31.282864 -2.597066 -0.592109 1.385580 22.078691 -8.236794 5.488216 -20.139629 1.999892 2.776263 -9.445467 5.041281 16.128754 19.686127 -14.278581 31.691711 9.969777 -14.785672 3.853935 -72.609055 -68.599747 35.430321 -78.260521 7.227336 21.421883 8.524705 12.647240 -12.649794 -4.049711 8.641859 2.072876 11.114713 34.117752 -25.662727 86.383698 -1.497688 30.831902 -8.534408 -12.637552 81.195175 -10.184711 9.012857 3.102329 27.689774 -5.464062 -4.543235 -13.662901 -6.348715 -4.710226 0.818534 -7.657012 -7.506280 56.248169 3.142675 7.785204 -6.759054 -12.358974 1.955458 
7.650849 53.091656 31.690422 -2.762748 -0.557758 1.610701 22.100206 -8.061026 5.073459 -19.904022 2.192858 2.656288 -8.994665 5.040813 16.062332 18.848713 -14.819821 31.552258 9.969777 -14.785672 3.853935 -72.659012 -68.419083 35.737083 -78.154305 7.268715 21.370901 8.524705 12.647240 -13.108778 -4.049711 8.641859 2.072876 11.451921 34.609356 -24.436102 86.345306 -1.419592 30.631018 -8.534408 -12.637552 80.599472 -9.342513 8.697948 2.742104 27.298386 -5.483336 -4.493123 -13.750133 -6.070180 -4.636361 -0.020342 -7.971985 -8.256906 57.716656 2.976791 7.915324 -8.079557 -12.687111 1.663783 
